ffmpeg version 4.4.1-essentials_build-www.gyan.dev Copyright (c) 2000-2021 the FFmpeg developers
  built with gcc 11.2.0 (Rev1, Built by MSYS2 project)
  configuration: --enable-gpl --enable-version3 --enable-static --disable-w32threads --disable-autodetect --enable-fontconfig --enable-iconv --enable-gnutls --enable-libxml2 --enable-gmp --enable-lzma --enable-zlib --enable-libsrt --enable-libssh --enable-libzmq --enable-avisynth --enable-sdl2 --enable-libwebp --enable-libx264 --enable-libx265 --enable-libxvid --enable-libaom --enable-libopenjpeg --enable-libvpx --enable-libass --enable-libfreetype --enable-libfribidi --enable-libvidstab --enable-libvmaf --enable-libzimg --enable-amf --enable-cuda-llvm --enable-cuvid --enable-ffnvcodec --enable-nvdec --enable-nvenc --enable-d3d11va --enable-dxva2 --enable-libmfx --enable-libgme --enable-libopenmpt --enable-libopencore-amrwb --enable-libmp3lame --enable-libtheora --enable-libvo-amrwbenc --enable-libgsm --enable-libopencore-amrnb --enable-libopus --enable-libspeex --enable-libvorbis --enable-librubberband
  libavutil      56. 70.100 / 56. 70.100
  libavcodec     58.134.100 / 58.134.100
  libavformat    58. 76.100 / 58. 76.100
  libavdevice    58. 13.100 / 58. 13.100
  libavfilter     7.110.100 /  7.110.100
  libswscale      5.  9.100 /  5.  9.100
  libswresample   3.  9.100 /  3.  9.100
  libpostproc    55.  9.100 / 55.  9.100
Input #0, rawvideo, from 'pipe:':
  Duration: N/A, start: 0.000000, bitrate: 345600 kb/s
  Stream #0:0: Video: rawvideo (RGB[24] / 0x18424752), rgb24, 800x600, 345600 kb/s, 30 tbr, 30 tbn, 30 tbc
Stream mapping:
  Stream #0:0 -> #0:0 (rawvideo (native) -> h264 (libx264))
[libx264 @ 0000024a4a102d80] using cpu capabilities: MMX2 SSE2Fast SSSE3 SSE4.2 AVX FMA3 BMI2 AVX2
[libx264 @ 0000024a4a102d80] profile High, level 3.1, 4:2:0, 8-bit
[libx264 @ 0000024a4a102d80] 264 - core 164 r3075 66a5bc1 - H.264/MPEG-4 AVC codec - Copyleft 2003-2021 - http://www.videolan.org/x264.html - options: cabac=1 ref=3 deblock=1:0:0 analyse=0x3:0x113 me=hex subme=7 psy=1 psy_rd=1.00:0.00 mixed_ref=1 me_range=16 chroma_me=1 trellis=1 8x8dct=1 cqm=0 deadzone=21,11 fast_pskip=1 chroma_qp_offset=-2 threads=12 lookahead_threads=2 sliced_threads=0 nr=0 decimate=1 interlaced=0 bluray_compat=0 constrained_intra=0 bframes=3 b_pyramid=2 b_adapt=1 b_bias=0 direct=1 weightb=1 open_gop=0 weightp=2 keyint=250 keyint_min=25 scenecut=40 intra_refresh=0 rc_lookahead=40 rc=crf mbtree=1 crf=23.0 qcomp=0.60 qpmin=0 qpmax=69 qpstep=4 ip_ratio=1.40 aq=1:1.00
Output #0, mp4, to 'output.mp4':
  Metadata:
    encoder         : Lavf58.76.100
  Stream #0:0: Video: h264 (avc1 / 0x31637661), yuv420p(tv, progressive), 800x600, q=2-31, 30 fps, 15360 tbn
    Metadata:
      encoder         : Lavc58.134.100 libx264
    Side data:
      cpb: bitrate max/min/avg: 0/0/0 buffer size: 0 vbv_delay: N/A
frame=    1 fps=0.0 q=0.0 size=       0kB time=00:00:00.00 bitrate=N/A speed=   0x    frame=   34 fps=0.0 q=0.0 size=       0kB time=00:00:00.00 bitrate=N/A speed=   0x    frame=   66 fps= 66 q=29.0 size=       0kB time=00:00:00.23 bitrate=   1.6kbits/s speed=0.232x    frame=   78 fps= 59 q=-1.0 Lsize=       5kB time=00:00:02.50 bitrate=  15.2kbits/s speed=1.89x    
video:3kB audio:0kB subtitle:0kB other streams:0kB global headers:0kB muxing overhead: 60.922661%
[libx264 @ 0000024a4a102d80] frame I:1     Avg QP:10.16  size:   151
[libx264 @ 0000024a4a102d80] frame P:20    Avg QP:12.80  size:    33
[libx264 @ 0000024a4a102d80] frame B:57    Avg QP:16.67  size:    25
[libx264 @ 0000024a4a102d80] consecutive B-frames:  2.6%  0.0%  0.0% 97.4%
[libx264 @ 0000024a4a102d80] mb I  I16..4: 100.0%  0.0%  0.0%
[libx264 @ 0000024a4a102d80] mb P  I16..4:  0.0%  0.0%  0.0%  P16..4:  0.0%  0.0%  0.0%  0.0%  0.0%    skip:100.0%
[libx264 @ 0000024a4a102d80] mb B  I16..4:  0.0%  0.0%  0.0%  B16..8:  0.0%  0.0%  0.0%  direct: 0.0%  skip:100.0%
[libx264 @ 0000024a4a102d80] 8x8 transform intra:0.0%
[libx264 @ 0000024a4a102d80] coded y,uvDC,uvAC intra: 0.0% 0.1% 0.0% inter: 0.0% 0.0% 0.0%
[libx264 @ 0000024a4a102d80] i16 v,h,dc,p: 97%  0%  3%  0%
[libx264 @ 0000024a4a102d80] i8c dc,h,v,p: 97%  3%  0%  0%
[libx264 @ 0000024a4a102d80] Weighted P-Frames: Y:0.0% UV:0.0%
[libx264 @ 0000024a4a102d80] kb/s:6.95
